<?xml version="1.0" encoding="utf-8"?>
<!-- Generator: Adobe Illustrator 24.1.0, SVG Export Plug-In . SVG Version: 6.00 Build 0)  -->
<svg version="1.1" id="Layer_1" xmlns="http://www.w3.org/2000/svg" xmlns:xlink="http://www.w3.org/1999/xlink" x="0px" y="0px"
	 viewBox="0 0 512 512" style="enable-background:new 0 0 512 512;" xml:space="preserve">
<style type="text/css">
	.st0{fill:#F0F0F0;}
	.st1{fill-rule:evenodd;clip-rule:evenodd;fill:#F0F0F0;}
	.st2{fill-rule:evenodd;clip-rule:evenodd;fill:#003283;}
	.st3{fill-rule:evenodd;clip-rule:evenodd;fill:#E41F20;}
	.st4{fill-rule:evenodd;clip-rule:evenodd;fill:#FFFFFF;}
	.st5{fill:#0083CE;}
	.st6{fill:#E61446;}
	.st7{fill:#009C45;}
	.st8{fill:#F7B000;}
	.st9{fill:#000006;}
</style>
<circle class="st0" cx="256" cy="256" r="256"/>
<g id="Group_484" transform="translate(0.118 88.3)">
	<g id="Group_483">
		<g>
			<g id="Group_482">
				<path id="Path_2532" class="st1" d="M388.6,155.3c0-37.2-28.5-68.1-65.5-71.3c-13-37.1-53.7-56.7-90.8-43.7
					c-20.4,7.2-36.5,23.2-43.7,43.7c-39.3,3.3-68.6,37.8-65.3,77.2c1.6,19,10.7,36.6,25.4,48.9c-1.5,5.7-2.2,11.6-2.2,17.6
					c0,39.5,32.1,71.5,71.6,71.5c13.4,0,26.5-3.8,37.8-10.9c11.4,7.1,24.5,10.9,37.9,10.8c39.4,0,71.4-32,71.4-71.4
					c0-5.9-0.7-11.8-2.2-17.6C379.3,196.5,388.6,176.4,388.6,155.3L388.6,155.3z"/>
				<path id="Path_2533" class="st2" d="M256.9,106.7c-18.3,0-33.1,14.8-33,33.1c0,18.3,14.8,33.1,33.1,33c18.3,0,33.1-14.8,33-33.1
					c0,0,0,0,0,0C290,121.5,275.2,106.7,256.9,106.7C256.9,106.7,256.9,106.7,256.9,106.7z M256.9,155.8c-8.8,0-15.9-7.1-15.9-15.9
					c0-8.8,7.1-15.9,15.9-15.9c8.8,0,15.9,7.1,15.9,15.9S265.7,155.8,256.9,155.8L256.9,155.8z"/>
				<path id="Path_2534" class="st2" d="M388.6,155.3c0-37.2-28.5-68.1-65.5-71.3c-13-37.1-53.7-56.7-90.8-43.7
					c-20.4,7.2-36.5,23.2-43.7,43.7c-39.3,3.3-68.6,37.8-65.3,77.2c1.6,19,10.7,36.6,25.4,48.9c-1.5,5.7-2.2,11.6-2.2,17.6
					c0,39.5,32.1,71.5,71.6,71.5c13.4,0,26.5-3.8,37.8-10.9c11.4,7.1,24.5,10.9,37.9,10.8c39.4,0,71.4-32,71.4-71.4
					c0-5.9-0.7-11.8-2.2-17.6C379.3,196.5,388.6,176.4,388.6,155.3L388.6,155.3z M350.5,203.4c3.3,7.5,5,15.5,4.9,23.7
					c-0.1,32.9-26.9,59.5-59.7,59.4c-14.2,0-27.8-5.1-38.6-14.4c-25,21.4-62.6,18.4-84-6.6c-14.5-17-18.3-40.7-9.8-61.4
					c-27.9-17.4-36.4-54.1-18.9-82c10.9-17.4,29.9-28,50.4-28c1.2,0,2.4,0,3.7,0c8.1-31.9,40.6-51.1,72.4-42.9
					c21.1,5.4,37.5,21.9,42.9,42.9c1.2,0,2.4,0,3.8,0c32.9,0,59.5,26.6,59.5,59.5c0,0,0,0,0,0c0.2,19.9-9.7,38.6-26.2,49.6
					L350.5,203.4z"/>
				<path id="Path_2535" class="st3" d="M369.1,155.5c0-30.1-24.4-54.5-54.5-54.5l0,0c-1.7,0-3.4,0-5.1,0.2
					c-6.6-29.4-35.8-47.8-65.2-41.2c-20.5,4.6-36.6,20.7-41.2,41.2c-1.7,0-3.4-0.2-5.1-0.2c-30.1,0-54.5,24.4-54.5,54.5
					c0,19.5,10.4,37.5,27.2,47.2c-3,6.8-4.5,14.2-4.5,21.7c0,30.1,24.4,54.5,54.5,54.5c13.4,0,26.4-5,36.4-14
					c22.3,20.3,56.8,18.6,77-3.7c14.7-16.2,18.3-39.5,9.2-59.4c16.1-9.9,25.9-27.5,25.9-46.3H369.1z M334,198.3
					c14.4,22.2,8,51.9-14.2,66.2c-20.4,13.2-47.4,9-62.9-9.6c-16.6,20.6-46.7,23.8-67.3,7.2c-19-15.3-23.4-42.6-10.3-63.1
					c-24.3-10.3-35.7-38.4-25.4-62.7c7.5-17.7,24.9-29.2,44.2-29.2c3.7,0,7.4,0.5,11,1.3c2.8-26.3,26.3-45.3,52.6-42.6
					c22.3,2.4,40,19.9,42.5,42.3c3.1-0.6,6.3-1,9.5-1c26.4,0,47.9,21.4,47.9,47.8C361.7,173.5,350.9,190.4,334,198.3L334,198.3z"/>
				<path id="Path_2536" class="st4" d="M252.9,121.7h8.3l-3.8-12.7L252.9,121.7z"/>
				<path id="Path_2537" class="st4" d="M244.3,126.1l7.2-4.2l-9.8-9L244.3,126.1z"/>
				<path id="Path_2538" class="st4" d="M239.1,134.2l4.1-7.2l-12.9-2.9L239.1,134.2z"/>
				<path id="Path_2539" class="st4" d="M238.6,143.7v-8.2l-12.6,3.8L238.6,143.7z"/>
				<path id="Path_2540" class="st4" d="M243.1,152.4l-4.1-7.2l-9,9.7L243.1,152.4z"/>
				<path id="Path_2541" class="st4" d="M251.2,157.6l-7.1-4.2l-3,12.9L251.2,157.6z"/>
				<path id="Path_2542" class="st4" d="M260.8,158h-8.3l4,12.7L260.8,158z"/>
				<path id="Path_2543" class="st4" d="M269.4,153.6l-7.2,4.2l9.8,8.9L269.4,153.6z"/>
				<path id="Path_2544" class="st4" d="M274.6,145.5l-4.1,7.2l12.9,2.9L274.6,145.5z"/>
				<path id="Path_2545" class="st4" d="M275.1,135.9v8.2l12.6-3.8L275.1,135.9z"/>
				<path id="Path_2546" class="st4" d="M270.6,127.3l4.2,7.2l8.9-9.7L270.6,127.3z"/>
				<path id="Path_2547" class="st4" d="M262.5,122.1l7.2,4.2l2.9-12.9L262.5,122.1z"/>
				<path id="Path_2548" class="st5" d="M233.2,205.5c0-11.6-9.4-21.1-21.1-21.1s-21.1,9.4-21.1,21.1c0,11.6,9.4,21.1,21.1,21.1
					c0.6,0,1.2,0,1.8,0c0-0.6,0-1.1,0-1.7c-0.1-0.6-0.1-1.3,0-1.9c-0.6,0-1.2,0-1.8,0c-9.8,0.1-17.8-7.8-17.9-17.6
					c-0.1-9.8,7.8-17.8,17.6-17.9c9.8-0.1,17.8,7.8,17.9,17.6c0.1,7.7-4.8,14.6-12.2,17c-0.1,0.9-0.2,1.7-0.2,2.6v1.1
					C226.7,223.5,233.3,215.1,233.2,205.5L233.2,205.5z"/>
				<path id="Path_2549" class="st6" d="M324.5,205.5c-0.1,11.6-9.7,21-21.3,20.8c-10.7-0.1-19.6-8.3-20.7-18.9
					c1.3,0.1,2.5,0.4,3.8,0.8c1.5,9.5,10.4,16,19.9,14.4c9.5-1.5,16-10.4,14.4-19.9c-1.5-9.5-10.4-16-19.9-14.4
					c-8.1,1.3-14.2,8-14.6,16.2c-1.2-0.3-2.3-0.5-3.5-0.6c1-11.6,11.2-20.2,22.8-19.3c10.9,0.9,19.3,10,19.3,20.9L324.5,205.5z"/>
				<path id="Path_2550" class="st7" d="M298.2,225.9c-0.6,9.7-8.9,17.1-18.6,16.5c-9.7-0.6-17.1-8.9-16.5-18.6
					c0.4-7.2,5.2-13.4,12.1-15.7c0.1-0.9,0.2-1.7,0.2-2.6v-1.1c-11.3,2.9-18.1,14.4-15.2,25.7c2.9,11.3,14.4,18.1,25.7,15.2
					c8.7-2.2,15.1-9.8,15.8-18.7C300.4,226.4,299.2,226.2,298.2,225.9L298.2,225.9z M280.6,207.1c8.7,0,16.1,6.4,17.4,15
					c1.2,0.4,2.5,0.7,3.8,0.8c-1-10.9-10.1-19.2-21-19.2c-0.6,0-1.2,0-1.8,0v1.7c0,0.6,0,1.2,0,1.8c0.6-0.1,1.3-0.2,1.9-0.2
					L280.6,207.1z"/>
				<path id="Path_2551" class="st8" d="M256,226.4c-0.9,11.6-11.1,20.3-22.7,19.3c-11.6-0.9-20.3-11.1-19.3-22.7
					c0.7-9,7-16.5,15.8-18.7v1.1c0,0.9-0.1,1.8-0.2,2.6c-9.2,3-14.2,12.9-11.2,22.1c3,9.2,12.9,14.2,22.1,11.2
					c6.8-2.2,11.6-8.4,12-15.6C253.7,226.1,254.9,226.3,256,226.4L256,226.4z M233.1,207.3c0-0.6,0-1.2,0-1.8c0.1-0.6,0.1-1.2,0-1.7
					h1.8c10.9,0,20,8.3,21,19.2c-1.3-0.1-2.5-0.4-3.8-0.8c-1.3-8.6-8.7-15-17.4-15c-0.6,0.1-1.2,0.2-1.8,0.2L233.1,207.3z"/>
				<path id="Path_2552" class="st9" d="M257.8,223c-8.7,0-16.1-6.4-17.4-15c-1.2-0.4-2.5-0.6-3.8-0.8c1,10.9,10.1,19.2,21,19.2
					c0.6,0,1.2,0,1.8,0c-0.1-0.6-0.1-1.2,0-1.7c-0.1-0.6-0.1-1.3,0-1.9c-0.6,0.2-1.2,0.4-1.8,0.3L257.8,223z M257.8,184.4
					c-11,0-20.1,8.4-21,19.3c1.2,0.1,2.4,0.3,3.5,0.6c0.6-9.7,9-17,18.7-16.4c9.2,0.6,16.4,8.2,16.4,17.5c0,7.6-4.8,14.3-12,16.7
					c-0.1,0.9-0.2,1.7-0.2,2.6v1.1c9.3-2.4,15.8-10.8,15.7-20.4C278.9,193.8,269.5,184.4,257.8,184.4L257.8,184.4z"/>
			</g>
		</g>
	</g>
</g>
</svg>
