<?xml version="1.0" encoding="utf-8"?>
<!-- Generator: Adobe Illustrator 25.4.1, SVG Export Plug-In . SVG Version: 6.00 Build 0)  -->
<svg version="1.1" id="Layer_1" xmlns="http://www.w3.org/2000/svg" xmlns:xlink="http://www.w3.org/1999/xlink" x="0px" y="0px"
	 width="512px" height="512px" viewBox="0 0 512 512" style="enable-background:new 0 0 512 512;" xml:space="preserve">
<style type="text/css">
	.st0{fill:#F0F0F0;}
	.st1{fill:#FF9811;}
	.st2{fill:#6DA544;}
	.st3{fill:#000088;}
</style>
<circle class="st0" cx="256" cy="256" r="256"/>
<path class="st1" d="M256,0C154.5,0,66.8,59.1,25.4,144.7h461.2C445.2,59.1,357.5,0,256,0z"/>
<path class="st2" d="M256,512c101.5,0,189.2-59.1,230.6-144.7H25.4C66.8,452.9,154.5,512,256,512z"/>
<circle class="st0" cx="256" cy="256" r="55.7"/>
<g>
	<circle class="st3" cx="256" cy="256" r="87"/>
	<circle class="st0" cx="256" cy="256" r="76.2"/>
	<ellipse transform="matrix(0.2298 -0.9732 0.9732 0.2298 -51.9685 446.3349)" class="st3" cx="256" cy="256" rx="15.2" ry="15.2"/>
	<path class="st3" d="M332,262.2c2.1,0.3,3.6,2.2,3.3,4.3c-0.3,2.1-2.2,3.6-4.3,3.3c-2.1-0.3-3.6-2.2-3.3-4.3
		C328,263.4,329.9,261.9,332,262.2z"/>
	<polygon class="st3" points="256,332.2 258.6,286.5 256,264.7 253.4,286.5 	"/>
	<circle class="st3" cx="326.4" cy="285.1" r="3.8"/>
	<polygon class="st3" points="236.3,329.6 250.6,286.1 253.7,264.4 245.6,284.8 	"/>
	<path class="st3" d="M318.7,299.3c1.7,1.3,2,3.7,0.7,5.3c-1.3,1.7-3.7,2-5.3,0.7c-1.7-1.3-2-3.7-0.7-5.3
		C314.7,298.4,317.1,298.1,318.7,299.3z"/>
	<polygon class="st3" points="217.9,322 243,283.7 251.6,263.5 238.5,281.1 	"/>
	<path class="st3" d="M305.4,314.1c1.3,1.7,1,4.1-0.7,5.3c-1.7,1.3-4.1,1-5.3-0.7c-1.3-1.7-1-4.1,0.7-5.3
		C301.7,312.1,304.1,312.4,305.4,314.1z"/>
	<polygon class="st3" points="202.1,309.9 236.3,279.4 249.8,262.2 232.6,275.7 	"/>
	<path class="st3" d="M288.7,324.9c0.8,1.9-0.1,4.2-2.1,5c-1.9,0.8-4.2-0.1-5-2.1c-0.8-1.9,0.1-4.2,2.1-5
		C285.6,322,287.9,323,288.7,324.9z"/>
	<polygon class="st3" points="190,294.1 230.9,273.5 248.5,260.4 228.3,269 	"/>
	<path class="st3" d="M269.7,331c0.3,2.1-1.2,4-3.3,4.3c-2.1,0.3-4-1.2-4.3-3.3c-0.3-2.1,1.2-4,3.3-4.3
		C267.5,327.5,269.4,328.9,269.7,331z"/>
	<polygon class="st3" points="182.4,275.7 227.2,266.4 247.6,258.3 225.9,261.4 	"/>
	<path class="st3" d="M249.8,332c-0.3,2.1-2.2,3.6-4.3,3.3s-3.6-2.2-3.3-4.3c0.3-2.1,2.2-3.6,4.3-3.3
		C248.6,328,250.1,329.9,249.8,332z"/>
	<polygon class="st3" points="179.8,256 225.5,258.6 247.3,256 225.5,253.4 	"/>
	<ellipse transform="matrix(0.9863 -0.1651 0.1651 0.9863 -50.768 41.9299)" class="st3" cx="226.9" cy="326.4" rx="3.8" ry="3.8"/>
	<polygon class="st3" points="182.4,236.3 225.9,250.6 247.6,253.7 227.2,245.6 	"/>
	<path class="st3" d="M212.7,318.7c-1.3,1.7-3.7,2-5.3,0.7c-1.7-1.3-2-3.7-0.7-5.3c1.3-1.7,3.7-2,5.3-0.7
		C213.6,314.7,213.9,317.1,212.7,318.7z"/>
	<polygon class="st3" points="190,217.9 228.3,243 248.5,251.6 230.9,238.5 	"/>
	<path class="st3" d="M197.9,305.4c-1.7,1.3-4.1,1-5.3-0.7c-1.3-1.7-1-4.1,0.7-5.3c1.7-1.3,4.1-1,5.3,0.7
		C199.9,301.7,199.6,304.1,197.9,305.4z"/>
	<polygon class="st3" points="202.1,202.1 232.6,236.3 249.8,249.8 236.3,232.6 	"/>
	<circle class="st3" cx="185.6" cy="285.1" r="3.8"/>
	<polygon class="st3" points="217.9,190 238.5,230.9 251.6,248.5 243,228.3 	"/>
	
		<ellipse transform="matrix(0.6997 -0.7144 0.7144 0.6997 -135.7964 208.7945)" class="st3" cx="180.5" cy="265.9" rx="3.8" ry="3.8"/>
	<polygon class="st3" points="236.3,182.4 245.6,227.2 253.7,247.6 250.6,225.9 	"/>
	<path class="st3" d="M180,249.8c-2.1-0.3-3.6-2.2-3.3-4.3c0.3-2.1,2.2-3.6,4.3-3.3c2.1,0.3,3.6,2.2,3.3,4.3
		C184,248.6,182.1,250.1,180,249.8z"/>
	<polygon class="st3" points="256,179.8 253.4,225.5 256,247.3 258.6,225.5 	"/>
	<path class="st3" d="M184.2,230.4c-1.9-0.8-2.9-3-2.1-5c0.8-1.9,3-2.9,5-2.1c1.9,0.8,2.9,3,2.1,5
		C188.3,230.3,186.1,231.2,184.2,230.4z"/>
	<polygon class="st3" points="275.7,182.4 261.4,225.9 258.3,247.6 266.4,227.2 	"/>
	<path class="st3" d="M193.3,212.7c-1.7-1.3-2-3.7-0.7-5.3c1.3-1.7,3.7-2,5.3-0.7c1.7,1.3,2,3.7,0.7,5.3
		C197.3,213.6,194.9,213.9,193.3,212.7z"/>
	<polygon class="st3" points="294.1,190 269,228.3 260.4,248.5 273.5,230.9 	"/>
	<circle class="st3" cx="209.6" cy="195.6" r="3.8"/>
	<polygon class="st3" points="309.9,202.1 275.7,232.6 262.2,249.8 279.4,236.3 	"/>
	<path class="st3" d="M223.3,187.1c-0.8-1.9,0.1-4.2,2.1-5c1.9-0.8,4.2,0.1,5,2.1c0.8,1.9-0.1,4.2-2.1,5
		C226.4,190,224.1,189,223.3,187.1z"/>
	<polygon class="st3" points="322,217.9 281.1,238.5 263.5,251.6 283.7,243 	"/>
	
		<ellipse transform="matrix(0.3971 -0.9178 0.9178 0.3971 -17.2958 334.6423)" class="st3" cx="246.1" cy="180.5" rx="3.8" ry="3.8"/>
	<polygon class="st3" points="329.6,236.3 284.8,245.6 264.4,253.7 286.1,250.6 	"/>
	
		<ellipse transform="matrix(0.5739 -0.8189 0.8189 0.5739 -34.4881 294.6868)" class="st3" cx="265.9" cy="180.5" rx="3.8" ry="3.8"/>
	<polygon class="st3" points="332.2,256 286.5,253.4 264.7,256 286.5,258.6 	"/>
	
		<ellipse transform="matrix(0.9996 -2.695600e-02 2.695600e-02 0.9996 -4.9003 7.7539)" class="st3" cx="285.1" cy="185.6" rx="3.8" ry="3.8"/>
	<polygon class="st3" points="329.6,275.7 286.1,261.4 264.4,258.3 284.8,266.4 	"/>
	<path class="st3" d="M299.3,193.3c1.3-1.7,3.7-2,5.3-0.7c1.7,1.3,2,3.7,0.7,5.3c-1.3,1.7-3.7,2-5.3,0.7
		C298.4,197.3,298.1,194.9,299.3,193.3z"/>
	<polygon class="st3" points="322,294.1 283.7,269 263.5,260.4 281.1,273.5 	"/>
	<path class="st3" d="M314.1,206.6c1.7-1.3,4.1-1,5.3,0.7c1.3,1.7,1,4.1-0.7,5.3c-1.7,1.3-4.1,1-5.3-0.7
		C312.1,210.3,312.4,207.9,314.1,206.6z"/>
	<polygon class="st3" points="309.9,309.9 279.4,275.7 262.2,262.2 275.7,279.4 	"/>
	
		<ellipse transform="matrix(0.9762 -0.2167 0.2167 0.9762 -41.3988 76.1022)" class="st3" cx="326.4" cy="226.9" rx="3.8" ry="3.8"/>
	<polygon class="st3" points="294.1,322 273.5,281.1 260.4,263.5 269,283.7 	"/>
	<path class="st3" d="M331,242.3c2.1-0.3,4,1.2,4.3,3.3c0.3,2.1-1.2,4-3.3,4.3c-2.1,0.3-4-1.2-4.3-3.3
		C327.5,244.5,328.9,242.6,331,242.3z"/>
	<polygon class="st3" points="275.7,329.6 266.4,284.8 258.3,264.4 261.4,286.1 	"/>
</g>
</svg>
