<?xml version="1.0" encoding="utf-8"?>
<!-- Generator: Adobe Illustrator 24.1.0, SVG Export Plug-In . SVG Version: 6.00 Build 0)  -->
<svg version="1.1" id="Layer_1" xmlns="http://www.w3.org/2000/svg" xmlns:xlink="http://www.w3.org/1999/xlink" x="0px" y="0px"
	 viewBox="0 0 512 512" style="enable-background:new 0 0 512 512;" xml:space="preserve">
<style type="text/css">
	.st0{clip-path:url(#SVGID_2_);}
	.st1{fill:#D80027;}
	.st2{fill:#F0F0F0;}
	.st3{fill:#0052B4;}
	.st4{fill:#FFDA44;}
</style>
<g>
	<defs>
		<circle id="SVGID_1_" cx="256" cy="256" r="256"/>
	</defs>
	<clipPath id="SVGID_2_">
		<use xlink:href="#SVGID_1_"  style="overflow:visible;"/>
	</clipPath>
	<g class="st0">
		<rect id="_x31_1_2_" x="-85.3" y="0" class="st1" width="1024" height="512"/>
		<rect id="_x31_0_2_" x="-85.3" y="475.4" class="st2" width="1024" height="36.6"/>
		<rect id="_x39__2_" x="-85.3" y="402.3" class="st2" width="1024" height="36.6"/>
		<rect id="_x38__2_" x="-85.3" y="329.1" class="st2" width="1024" height="36.6"/>
		<rect id="_x37__2_" x="-85.3" y="256" class="st2" width="1024" height="36.6"/>
		<rect id="_x36__2_" x="-85.3" y="182.9" class="st2" width="1024" height="36.6"/>
		<rect id="_x35__2_" x="-85.3" y="109.7" class="st2" width="1024" height="36.6"/>
		<rect id="_x34__2_" x="-85.3" y="36.6" class="st2" width="1024" height="36.6"/>
		<rect id="_x33__1_" x="-85.3" y="0" class="st3" width="512" height="292.6"/>
		<path id="_x32__2_" class="st4" d="M125.3,36.6c-60.8,0-110.1,49.2-110.1,109.7c0,60.6,49.3,109.7,110.1,109.7
			c22,0,42.4-6.4,59.6-17.5c-10,3.5-20.7,5.3-31.9,5.3c-53.9,0-97.6-43.6-97.6-97.3S99.1,49.3,153,49.3c11.9,0,23.3,2.1,33.9,6
			C169.3,43.5,148.1,36.6,125.3,36.6z"/>
		<path id="_x31__2_" class="st4" d="M307.9,203.4l-46.4-24.2l13.7,49.5l-31-41.4l-9.7,50.4l-9.5-50.4l-31.1,41.3l13.9-49.5
			l-46.4,24.1l34.5-38.7l-52.5,2l48.3-20.3l-48.2-20.4l52.5,2.2l-34.4-38.8l46.4,24.2l-13.7-49.5l31,41.4l9.7-50.4l9.5,50.4
			L275.5,64l-13.9,49.5l46.4-24.1l-34.5,38.7l52.5-2l-48.3,20.3l48.2,20.4l-52.5-2.2L307.9,203.4z"/>
	</g>
</g>
</svg>
