<?xml version="1.0" encoding="utf-8"?>
<!-- Generator: Adobe Illustrator 16.0.0, SVG Export Plug-In . SVG Version: 6.00 Build 0)  -->
<!DOCTYPE svg PUBLIC "-//W3C//DTD SVG 1.1//EN" "http://www.w3.org/Graphics/SVG/1.1/DTD/svg11.dtd">
<svg version="1.1" id="Layer_1" xmlns="http://www.w3.org/2000/svg" xmlns:xlink="http://www.w3.org/1999/xlink" x="0px" y="0px"
	 width="196px" height="100px" viewBox="0 0 196 100" enable-background="new 0 0 196 100" xml:space="preserve">
<g>
	<rect x="37.28" y="27.602" fill="#FFFFFF" width="44.744" height="44.744"/>
	<polygon fill="#DB0011" points="104.395,50.025 82.023,27.602 82.023,72.398 	"/>
	<polygon fill="#DB0011" points="59.651,50.025 82.023,27.602 37.28,27.602 	"/>
	<polygon fill="#DB0011" points="14.855,50.025 37.28,72.398 37.28,27.602 	"/>
	<polygon fill="#DB0011" points="59.651,50.025 37.28,72.398 82.023,72.398 	"/>
	<path d="M124.031,51.344h-8.108v8h-4.053V40.604h4.053v7.686h8.108v-7.686h4.052v18.739h-4.052V51.344z"/>
	<path d="M137.875,59.711c-4.054,0-7.37-1.629-7.424-6.104h4.055c0.053,2,1.211,3.21,3.421,3.21c1.633,0,3.526-0.843,3.526-2.685
		c0-1.474-1.264-1.895-3.367-2.526l-1.369-0.366c-2.947-0.845-5.896-2.003-5.896-5.371c0-4.158,3.894-5.58,7.422-5.58
		c3.633,0,6.79,1.265,6.843,5.421h-4.054c-0.157-1.684-1.158-2.684-3.053-2.684c-1.526,0-3.001,0.79-3.001,2.474
		c0,1.369,1.263,1.789,3.897,2.631l1.577,0.476c3.21,1,5.265,2.105,5.265,5.262C145.666,58.082,141.559,59.711,137.875,59.711z"/>
	<path d="M147.981,40.656h6.527c1.209-0.052,2.474,0,3.684,0.212c2.265,0.524,4.001,2,4.001,4.527c0,2.42-1.525,3.631-3.737,4.21
		c2.525,0.473,4.423,1.738,4.423,4.526c0,4.264-4.213,5.212-7.476,5.212h-7.37L147.981,40.656z M154.509,48.447
		c1.79,0,3.632-0.368,3.632-2.526c0-1.947-1.686-2.475-3.37-2.475h-2.842v5.001H154.509z M154.877,56.554
		c1.896,0,3.737-0.421,3.737-2.738c0-2.315-1.579-2.735-3.526-2.735h-3.211v5.474H154.877z"/>
	<path d="M173.405,59.711c-6.053,0-8.739-3.841-8.739-9.579s3.001-9.896,8.95-9.896c3.736,0,7.37,1.683,7.474,5.896h-4.209
		c-0.211-1.896-1.474-2.844-3.265-2.844c-3.686,0-4.789,3.947-4.789,6.947c0,3.001,1.104,6.477,4.631,6.477
		c1.843,0,3.212-1,3.476-2.896h4.211C180.724,58.134,177.301,59.711,173.405,59.711z"/>
</g>
</svg>
