<?xml version="1.0" encoding="utf-8"?>
<!-- Generator: Adobe Illustrator 16.0.0, SVG Export Plug-In . SVG Version: 6.00 Build 0)  -->
<!DOCTYPE svg PUBLIC "-//W3C//DTD SVG 1.1//EN" "http://www.w3.org/Graphics/SVG/1.1/DTD/svg11.dtd">
<svg version="1.1" id="Layer_1" xmlns="http://www.w3.org/2000/svg" xmlns:xlink="http://www.w3.org/1999/xlink" x="0px" y="0px"
	 width="196px" height="100px" viewBox="0 0 196 100" enable-background="new 0 0 196 100" xml:space="preserve">
<g>
	<g>
		<path fill="#df2027" d="M132.09,22.267L72.96,39.965c-5.224,1.518-9.071,4.958-9.064,10.231c0.011,4.955,3.504,8.687,8.188,10.048
			c0,0,0.003,0.003,0.009,0.005c0.846,0.245,60.011,17.484,60.011,17.484L132.09,22.267z"/>
	</g>
	<g>
		<path fill="#FFFFFF" d="M84.178,46.583c-0.191,0.908-0.851,1.496-2.513,1.496h-1.702l0.644-2.989h1.68
			C84.084,45.09,84.386,45.618,84.178,46.583 M83.516,52.141c-0.243,1.134-1.077,1.646-3.061,1.646h-1.701l0.698-3.288h1.705
			C83.14,50.498,83.746,51.006,83.516,52.141 M112.857,42.557c-2.615,0-3.26,1.865-3.26,1.865l-2.811,6.66h-0.055l-0.719-8.525
			h-4.42c-2.121,0-2.973,1.931-2.973,1.931l-3.365,6.595h-0.056l-0.019-8.524h-2.996c-1.984,0-2.417,1.072-2.503,1.68
			c-0.573-1.1-2.156-1.68-4.977-1.68h-7.109c-2.3,0-2.507,1.719-2.507,1.719l-2.595,11.931h10.06c2.946,0,3.892-0.302,4.951-1.058
			c0.718-0.512,1.302-1.399,1.53-2.459c0.493-2.343-1.172-3.27-3.062-3.384V49.27c1.723-0.396,3.195-1.155,3.739-2.693l0.216,9.628
			h4.802c2.751,0,3.768-2.504,3.768-2.504l2.943-5.795h0.057l0.682,8.299h4.283c3.105,0,4.164-2.695,4.164-2.695l3.773-8.416
			l-2.355,11.109h2.561c3.312,0,3.75-2.644,3.75-2.644l0.516-2.424h3.678c2.83,0,3.238-2.153,3.238-2.153l0.15-0.717h-6.461
			l0.6-2.836h4.066c2.775,0,3.172-2.055,3.172-2.055l0.174-0.818H112.857L112.857,42.557z"/>
	</g>
</g>
</svg>
