<?xml version="1.0" encoding="utf-8"?>
<!-- Generator: Adobe Illustrator 16.0.0, SVG Export Plug-In . SVG Version: 6.00 Build 0)  -->
<!DOCTYPE svg PUBLIC "-//W3C//DTD SVG 1.1//EN" "http://www.w3.org/Graphics/SVG/1.1/DTD/svg11.dtd" [
	<!ENTITY ns_flows "http://ns.adobe.com/Flows/1.0/">
	<!ENTITY ns_extend "http://ns.adobe.com/Extensibility/1.0/">
	<!ENTITY ns_ai "http://ns.adobe.com/AdobeIllustrator/10.0/">
	<!ENTITY ns_graphs "http://ns.adobe.com/Graphs/1.0/">
]>
<svg version="1.1" id="Layer_1" xmlns:x="&ns_extend;" xmlns:i="&ns_ai;" xmlns:graph="&ns_graphs;"
	 xmlns="http://www.w3.org/2000/svg" xmlns:xlink="http://www.w3.org/1999/xlink" xmlns:a="http://ns.adobe.com/AdobeSVGViewerExtensions/3.0/"
	 x="0px" y="0px" width="196px" height="100px" viewBox="0 0 196 100" enable-background="new 0 0 196 100" xml:space="preserve">
<g>
	<g>
		<defs>
			<rect id="SVGID_1_" x="14" y="24.991" width="168" height="50.018"/>
		</defs>
		<clipPath id="SVGID_2_">
			<use xlink:href="#SVGID_1_"  overflow="visible"/>
		</clipPath>
		<path clip-path="url(#SVGID_2_)" fill="#BD2F44" d="M181.972,40.022v-0.001h-3.438l1.222-9.938h-9.927l-1.239,9.94h-6.451
			c6.484,2.515,5.221,10.019,5.221,10.019l0,0l-3.037,24.893c0.142,0,0.849-0.024,1.058-0.041c0.242-0.017,0.919-0.099,1.017-0.112
			c0.26-0.04,0.897-0.17,0.965-0.187c0.267-0.062,0.867-0.236,0.908-0.25c0.274-0.089,0.832-0.306,0.847-0.312
			c3.516-1.455,5.809-4.616,6.354-9.041l1.835-14.95h3.465L182,40.022H181.972L181.972,40.022z"/>
		<path clip-path="url(#SVGID_2_)" fill="#BD2F44" d="M24.496,61.254l2.607-21.233h-9.929l-3.066,24.969
			c-0.762,6.206,2.514,9.944,8.708,9.944h4.549l1.221-9.944h-0.822C25.306,64.989,24.194,63.72,24.496,61.254"/>
	</g>
	<path fill="#BD2F44" d="M63.592,50.041c0.771-6.281-2.502-10.019-8.697-10.019H31.691l-1.23,10.019h0.813
		c2.464,0,3.588,1.196,3.276,3.733l-2.597,21.159h9.926l3.057-24.893h5.001c2.458,0,3.58,1.196,3.269,3.733l-1.377,11.217
		c-0.76,6.189,2.495,9.922,8.659,9.941L63.592,50.041L63.592,50.041z"/>
	<path fill="#BD2F44" d="M94.852,40.073c-8.183,0-8.917,7.217-9.12,8.871l-3.161,25.99h9.922l2.598-21.159
		c0.38-2.789,0.514-3.694,1.863-3.75c0.133-0.011,2.499-0.005,3.557-0.001c0,0,0.617-5.545,4.785-9.112
		c0.064-0.042,0.842-0.622,1.177-0.85L94.852,40.073L94.852,40.073z"/>
	<path fill="#BD2F44" d="M114.903,69.628h-0.671c-3.781,0-6.497-3.094-6.034-6.875l1.296-10.502
		c0.462-3.781,3.934-6.874,7.715-6.874h0.671c3.781,0,6.495,3.093,6.034,6.874l-1.298,10.502
		C122.155,66.534,118.685,69.628,114.903,69.628L114.903,69.628z"/>
	<path fill="#BD2F44" d="M153.855,40.022h-23.514c1.67,1.329,2.881,3.216,3.451,5.424c0.681,2.407,0.322,4.595,0.322,4.595l0,0
		l-3.198,24.893h9.921l3.058-24.893h5c2.458,0,3.583,1.196,3.271,3.733l-1.379,11.217c-0.761,6.204,2.512,9.942,8.707,9.942
		l3.056-24.893C163.323,43.76,160.051,40.022,153.855,40.022L153.855,40.022z"/>
	<path fill="#BD2F44" d="M79.619,40.027l0.146-1.239c0.313-2.549,1.825-3.748,4.302-3.748h2.467l1.234-10.05h-6.214
		c-6.215,0-10.417,3.751-11.191,10.05l-0.607,4.947h-6.471c6.504,2.521,5.237,10.049,5.237,10.049l0,0l-3.047,24.972
		c5.673-0.008,9.66-3.15,10.884-8.445l2.029-16.526l0.007-0.056c0.582-0.006,2.472-0.001,3.386,0.002c0,0,0.771-7.787,3.954-9.962
		L79.619,40.027L79.619,40.027z"/>
</g>
</svg>
